<svg width="44" height="55" viewBox="0 0 44 55" fill="none" xmlns="http://www.w3.org/2000/svg">
<path opacity="0.15" d="M0 52.7744C-6.08828e-08 53.0454 0.569047 53.3137 1.67465 53.5641C2.78025 53.8145 4.40076 54.042 6.44365 54.2336C8.48654 54.4252 10.9118 54.5772 13.581 54.681C16.2501 54.7847 19.1109 54.838 22 54.838C24.8891 54.838 27.7499 54.7847 30.419 54.681C33.0882 54.5772 35.5135 54.4252 37.5563 54.2336C39.5992 54.042 41.2197 53.8145 42.3253 53.5641C43.431 53.3137 44 53.0454 44 52.7744C44 52.2271 41.6821 51.7021 37.5563 51.3151C33.4305 50.9281 27.8348 50.7107 22 50.7107C16.1652 50.7107 10.5695 50.9281 6.44365 51.3151C2.31785 51.7021 0 52.2271 0 52.7744Z" fill="#424242"/>
<path d="M2.23499 43.2085H41.7647V48.3853C41.7647 49.3711 41.3732 50.3164 40.6761 51.0134C39.9791 51.7105 39.0338 52.102 38.048 52.102H5.95168C4.96596 52.102 4.0206 51.7105 3.32358 51.0134C2.62656 50.3164 2.23499 49.3711 2.23499 48.3853V43.2085Z" fill="#E3E3E3" stroke="#9D9D9D" stroke-width="1.32739" stroke-linecap="round" stroke-linejoin="round"/>
<path d="M2.23499 40.2882H41.7647V45.465C41.7647 46.4507 41.3732 47.3961 40.6761 48.0931C39.9791 48.7901 39.0338 49.1817 38.048 49.1817H5.95168C4.96595 49.1817 4.0206 48.7901 3.32358 48.0931C2.62657 47.3961 2.23499 46.4507 2.23499 45.465V40.2882Z" fill="#E3E3E3" stroke="#9D9D9D" stroke-width="1.32739" stroke-linecap="round" stroke-linejoin="round"/>
<path d="M2.23499 16.9261H41.7647V42.5448C41.7647 43.5305 41.3732 44.4759 40.6761 45.1729C39.9791 45.8699 39.0338 46.2615 38.048 46.2615H5.95168C4.96595 46.2615 4.0206 45.8699 3.32358 45.1729C2.62657 44.4759 2.23499 43.5305 2.23499 42.5448V16.9261Z" fill="white" stroke="#9D9D9D" stroke-width="1.32739" stroke-linecap="round" stroke-linejoin="round"/>
<path d="M28.0823 25.9889H22.0198C20.7417 25.9889 20.2671 25.1602 20.2671 24.3546C20.2671 23.5259 20.7165 22.7203 22.0198 22.7203H30.5935C31.8024 22.7203 32.299 23.8098 32.299 24.4258C32.299 24.8994 32.0381 25.397 31.7542 25.9889L25.8802 37.9265C25.2171 39.2528 24.9562 39.7253 23.8908 39.7253C22.5876 39.7253 21.9244 38.7311 21.9244 38.0438C21.9244 37.7599 21.9957 37.5473 22.1612 37.2152L28.0823 25.9889ZM14.7063 25.8632H14.1825C13.0459 25.8632 12.5713 25.0974 12.5713 24.2917C12.5713 23.462 13.1632 22.7203 14.1825 22.7203H16.2935C17.3118 22.7203 17.8806 23.4547 17.8806 24.4017V37.8794C17.8806 39.0632 17.2961 39.7263 16.2778 39.7263C15.2595 39.7263 14.7063 39.0632 14.7063 37.8794V25.8632Z" fill="#66757F"/>
<path d="M40.1586 1.70244H36.4395C36.6347 2.08875 36.7538 2.53268 36.7538 3.01197C36.7538 3.70658 36.5147 4.37275 36.089 4.86391C35.6633 5.35508 35.086 5.63101 34.484 5.63101C33.882 5.63101 33.3046 5.35508 32.879 4.86391C32.4533 4.37275 32.2141 3.70658 32.2141 3.01197C32.2141 2.53268 32.3333 2.08875 32.5285 1.70244H11.4712C11.6664 2.08875 11.7856 2.53268 11.7856 3.01197C11.7856 3.70658 11.5464 4.37275 11.1208 4.86391C10.6951 5.35508 10.1177 5.63101 9.51573 5.63101C8.91373 5.63101 8.33639 5.35508 7.91071 4.86391C7.48504 4.37275 7.24589 3.70658 7.24589 3.01197C7.24589 2.53268 7.36506 2.08875 7.56027 1.70244H3.84113C3.23913 1.70244 2.66179 1.97838 2.23611 2.46954C1.81043 2.96071 1.57129 3.62688 1.57129 4.32149L1.57129 18.7263H42.4284V4.32149C42.4284 3.62688 42.1893 2.96071 41.7636 2.46954C41.3379 1.97838 40.7606 1.70244 40.1586 1.70244Z" fill="#F3C345"/>
<path d="M37.8886 14.754C37.8886 15.055 38.0082 15.3436 38.221 15.5565C38.4339 15.7693 38.7225 15.8889 39.0235 15.8889C39.3245 15.8889 39.6132 15.7693 39.826 15.5565C40.0389 15.3436 40.1584 15.055 40.1584 14.754C40.1584 14.453 40.0389 14.1643 39.826 13.9515C39.6132 13.7386 39.3245 13.619 39.0235 13.619C38.7225 13.619 38.4339 13.7386 38.221 13.9515C38.0082 14.1643 37.8886 14.453 37.8886 14.754ZM37.8886 11.3492C37.8886 11.6502 38.0082 11.9389 38.221 12.1517C38.4339 12.3646 38.7225 12.4841 39.0235 12.4841C39.3245 12.4841 39.6132 12.3646 39.826 12.1517C40.0389 11.9389 40.1584 11.6502 40.1584 11.3492C40.1584 11.0482 40.0389 10.7595 39.826 10.5467C39.6132 10.3339 39.3245 10.2143 39.0235 10.2143C38.7225 10.2143 38.4339 10.3339 38.221 10.5467C38.0082 10.7595 37.8886 11.0482 37.8886 11.3492ZM34.4838 14.754C34.4838 15.055 34.6034 15.3436 34.8162 15.5565C35.0291 15.7693 35.3178 15.8889 35.6188 15.8889C35.9198 15.8889 36.2084 15.7693 36.4213 15.5565C36.6341 15.3436 36.7537 15.055 36.7537 14.754C36.7537 14.453 36.6341 14.1643 36.4213 13.9515C36.2084 13.7386 35.9198 13.619 35.6188 13.619C35.3178 13.619 35.0291 13.7386 34.8162 13.9515C34.6034 14.1643 34.4838 14.453 34.4838 14.754ZM34.4838 11.3492C34.4838 11.6502 34.6034 11.9389 34.8162 12.1517C35.0291 12.3646 35.3178 12.4841 35.6188 12.4841C35.9198 12.4841 36.2084 12.3646 36.4213 12.1517C36.6341 11.9389 36.7537 11.6502 36.7537 11.3492C36.7537 11.0482 36.6341 10.7595 36.4213 10.5467C36.2084 10.3339 35.9198 10.2143 35.6188 10.2143C35.3178 10.2143 35.0291 10.3339 34.8162 10.5467C34.6034 10.7595 34.4838 11.0482 34.4838 11.3492ZM31.0791 14.754C31.0791 15.055 31.1986 15.3436 31.4115 15.5565C31.6243 15.7693 31.913 15.8889 32.214 15.8889C32.515 15.8889 32.8037 15.7693 33.0165 15.5565C33.2293 15.3436 33.3489 15.055 33.3489 14.754C33.3489 14.453 33.2293 14.1643 33.0165 13.9515C32.8037 13.7386 32.515 13.619 32.214 13.619C31.913 13.619 31.6243 13.7386 31.4115 13.9515C31.1986 14.1643 31.0791 14.453 31.0791 14.754ZM31.0791 11.3492C31.0791 11.6502 31.1986 11.9389 31.4115 12.1517C31.6243 12.3646 31.913 12.4841 32.214 12.4841C32.515 12.4841 32.8037 12.3646 33.0165 12.1517C33.2293 11.9389 33.3489 11.6502 33.3489 11.3492C33.3489 11.0482 33.2293 10.7595 33.0165 10.5467C32.8037 10.3339 32.515 10.2143 32.214 10.2143C31.913 10.2143 31.6243 10.3339 31.4115 10.5467C31.1986 10.7595 31.0791 11.0482 31.0791 11.3492ZM27.6743 11.3492C27.6743 11.6502 27.7939 11.9389 28.0067 12.1517C28.2196 12.3646 28.5082 12.4841 28.8092 12.4841C29.1102 12.4841 29.3989 12.3646 29.6117 12.1517C29.8246 11.9389 29.9442 11.6502 29.9442 11.3492C29.9442 11.0482 29.8246 10.7595 29.6117 10.5467C29.3989 10.3339 29.1102 10.2143 28.8092 10.2143C28.5082 10.2143 28.2196 10.3339 28.0067 10.5467C27.7939 10.7595 27.6743 11.0482 27.6743 11.3492ZM27.6743 14.754C27.6743 15.055 27.7939 15.3436 28.0067 15.5565C28.2196 15.7693 28.5082 15.8889 28.8092 15.8889C29.1102 15.8889 29.3989 15.7693 29.6117 15.5565C29.8246 15.3436 29.9442 15.055 29.9442 14.754C29.9442 14.453 29.8246 14.1643 29.6117 13.9515C29.3989 13.7386 29.1102 13.619 28.8092 13.619C28.5082 13.619 28.2196 13.7386 28.0067 13.9515C27.7939 14.1643 27.6743 14.453 27.6743 14.754Z" fill="#F7E8C1"/>
<circle cx="9.65788" cy="2.97916" r="2.97917" fill="white"/>
<circle cx="22.4255" cy="2.97916" r="2.97917" fill="white"/>
<circle cx="35.1935" cy="2.97916" r="2.97917" fill="white"/>
<path d="M18.3428 9.39459C18.3428 8.87078 18.678 8.57745 19.1285 8.57745C19.5779 8.57745 19.9131 8.87078 19.9131 9.39459V14.6505H21.7769C22.3111 14.6505 22.5416 15.0486 22.5311 15.4048C22.52 15.5954 22.435 15.7742 22.2942 15.9031C22.1533 16.032 21.9677 16.1009 21.7769 16.0952H19.1599C18.6466 16.0952 18.3428 15.761 18.3428 15.2372V9.39459ZM11.1037 9.39459C11.1037 8.87078 11.439 8.57745 11.8894 8.57745C12.3399 8.57745 12.6751 8.87078 12.6751 9.39459V13.0487C12.6751 14.0125 13.2922 14.7762 14.2874 14.7762C15.2397 14.7762 15.8892 13.9706 15.8892 13.0487V9.39459C15.8892 8.87078 16.2234 8.57745 16.6739 8.57745C17.1244 8.57745 17.4596 8.87078 17.4596 9.39459V13.1325C17.4596 14.8914 16.0139 16.2219 14.2874 16.2219C12.539 16.2219 11.1037 14.9124 11.1037 13.1325V9.39459ZM10.2845 14.001C10.2845 15.7599 9.16457 16.2209 8.21124 16.2209C7.48943 16.2209 6.28467 15.938 6.28467 15.0266C6.28467 14.7448 6.52562 14.3886 6.87133 14.3886C7.29038 14.3886 7.65705 14.7762 8.12743 14.7762C8.7141 14.7762 8.7141 14.2314 8.7141 13.8962V9.39459C8.7141 8.87078 9.04933 8.57745 9.49876 8.57745C9.95029 8.57745 10.2845 8.87078 10.2845 9.39459V14.001Z" fill="#F5F5F5"/>
</svg>
