<svg width="18" height="18" viewBox="0 0 18 18" fill="none" xmlns="http://www.w3.org/2000/svg">
<g clip-path="url(#clip0_118_479)">
<path d="M13.5917 0.970215H4.79482C2.6514 0.970215 0.913818 2.7078 0.913818 4.85121V13.6481C0.913818 15.7916 2.6514 17.5291 4.79482 17.5291H13.5917C15.7352 17.5291 17.4727 15.7916 17.4727 13.6481V4.85121C17.4727 2.7078 15.7352 0.970215 13.5917 0.970215Z" fill="url(#paint0_radial_118_479)"/>
<path d="M13.5917 0.970215H4.79482C2.6514 0.970215 0.913818 2.7078 0.913818 4.85121V13.6481C0.913818 15.7916 2.6514 17.5291 4.79482 17.5291H13.5917C15.7352 17.5291 17.4727 15.7916 17.4727 13.6481V4.85121C17.4727 2.7078 15.7352 0.970215 13.5917 0.970215Z" fill="url(#paint1_radial_118_479)"/>
<path d="M9.19389 2.78174C7.43722 2.78174 7.21671 2.78944 6.5268 2.82081C5.83818 2.85237 5.36813 2.96136 4.95687 3.12133C4.53139 3.28653 4.17052 3.50755 3.81101 3.86719C3.45117 4.22676 3.23015 4.58763 3.06443 5.01292C2.90402 5.42431 2.7949 5.89456 2.76391 6.58285C2.73306 7.27283 2.72498 7.4934 2.72498 9.25013C2.72498 11.0069 2.73274 11.2267 2.76404 11.9166C2.79574 12.6052 2.90473 13.0752 3.06456 13.4865C3.22989 13.912 3.45092 14.2729 3.81056 14.6324C4.17 14.9922 4.53087 15.2137 4.95603 15.3789C5.36761 15.5389 5.83773 15.6479 6.52622 15.6795C7.21619 15.7108 7.43651 15.7185 9.19311 15.7185C10.95 15.7185 11.1698 15.7108 11.8597 15.6795C12.5483 15.6479 13.0189 15.5389 13.4304 15.3789C13.8557 15.2137 14.2161 14.9922 14.5755 14.6324C14.9353 14.2729 15.1563 13.912 15.322 13.4867C15.481 13.0752 15.5902 12.6051 15.6226 11.9167C15.6535 11.2268 15.6616 11.0069 15.6616 9.25013C15.6616 7.4934 15.6535 7.27296 15.6226 6.58298C15.5902 5.89436 15.481 5.42437 15.322 5.01312C15.1563 4.58763 14.9353 4.22676 14.5755 3.86719C14.2157 3.50742 13.8559 3.2864 13.4301 3.12139C13.0177 2.96136 12.5474 2.85231 11.8588 2.82081C11.1688 2.78944 10.9491 2.78174 9.19188 2.78174H9.19389ZM8.61361 3.9474C8.78586 3.94714 8.97804 3.9474 9.19389 3.9474C10.921 3.9474 11.1257 3.95361 11.8077 3.98459C12.4383 4.01344 12.7806 4.11881 13.0086 4.20736C13.3105 4.32456 13.5257 4.46473 13.752 4.69119C13.9784 4.91758 14.1185 5.13317 14.236 5.43505C14.3246 5.66273 14.4301 6.00504 14.4588 6.6357C14.4898 7.31759 14.4965 7.52238 14.4965 9.24864C14.4965 10.9749 14.4898 11.1798 14.4588 11.8616C14.4299 12.4923 14.3246 12.8346 14.236 13.0623C14.1188 13.3642 13.9784 13.5791 13.752 13.8054C13.5256 14.0318 13.3107 14.1719 13.0086 14.2892C12.7809 14.3781 12.4383 14.4832 11.8077 14.5121C11.1258 14.543 10.921 14.5498 9.19389 14.5498C7.46671 14.5498 7.26199 14.543 6.58016 14.5121C5.9495 14.4829 5.6072 14.3776 5.379 14.289C5.07718 14.1718 4.86153 14.0316 4.63514 13.8053C4.40875 13.5789 4.26864 13.3638 4.15111 13.0618C4.06256 12.834 3.95706 12.4917 3.92834 11.8611C3.89736 11.1792 3.89115 10.9744 3.89115 9.24703C3.89115 7.51972 3.89736 7.31597 3.92834 6.63408C3.95719 6.00342 4.06256 5.66111 4.15111 5.43311C4.26838 5.13123 4.40875 4.91564 4.6352 4.68925C4.86159 4.46286 5.07718 4.32269 5.37906 4.20522C5.60707 4.11628 5.9495 4.01117 6.58016 3.9822C7.17687 3.95522 7.40811 3.94714 8.61361 3.94578V3.9474ZM12.6467 5.0214C12.2182 5.0214 11.8705 5.36875 11.8705 5.79734C11.8705 6.22586 12.2182 6.57354 12.6467 6.57354C13.0752 6.57354 13.4229 6.22586 13.4229 5.79734C13.4229 5.36881 13.0752 5.02114 12.6467 5.02114V5.0214ZM9.19389 5.92832C7.35947 5.92832 5.87214 7.41565 5.87214 9.25013C5.87214 11.0846 7.35947 12.5712 9.19389 12.5712C11.0284 12.5712 12.5152 11.0846 12.5152 9.25013C12.5152 7.41571 11.0282 5.92832 9.19376 5.92832H9.19389ZM9.19389 7.09398C10.3846 7.09398 11.35 8.05925 11.35 9.25013C11.35 10.4409 10.3846 11.4063 9.19389 11.4063C8.00307 11.4063 7.0378 10.4409 7.0378 9.25013C7.0378 8.05925 8.00307 7.09398 9.19389 7.09398Z" fill="white"/>
</g>
<defs>
<radialGradient id="paint0_radial_118_479" cx="0" cy="0" r="1" gradientUnits="userSpaceOnUse" gradientTransform="translate(5.31228 18.8045) rotate(-90) scale(16.4111 15.2636)">
<stop stop-color="#FFDD55"/>
<stop offset="0.1" stop-color="#FFDD55"/>
<stop offset="0.5" stop-color="#FF543E"/>
<stop offset="1" stop-color="#C837AB"/>
</radialGradient>
<radialGradient id="paint1_radial_118_479" cx="0" cy="0" r="1" gradientUnits="userSpaceOnUse" gradientTransform="translate(-1.85987 2.16304) rotate(78.681) scale(7.33586 30.2387)">
<stop stop-color="#3771C8"/>
<stop offset="0.128" stop-color="#3771C8"/>
<stop offset="1" stop-color="#6600FF" stop-opacity="0"/>
</radialGradient>
<clipPath id="clip0_118_479">
<rect width="16.5589" height="16.5589" fill="white" transform="translate(0.913818 0.971191)"/>
</clipPath>
</defs>
</svg>
