<svg width="83" height="94" viewBox="0 0 83 94" fill="none" xmlns="http://www.w3.org/2000/svg">
<path d="M65.6109 31.3197L61.8288 35.1018L41.6576 14.9306L27.002 29.4287L31.572 33.8411L40.2394 25.1738L72.2296 57.1641L68.2899 60.9462L40.2394 33.0532L35.3541 37.7808L63.5623 65.8314L41.0273 88.3664L16.9164 64.2555L20.8561 60.1583L41.0273 80.4871L55.6829 65.8314L51.2705 61.419L42.4456 70.2439L10.1401 38.096L13.9222 34.1563L42.4456 62.2069L47.1732 57.4793L18.965 29.4287L41.3425 7.05127L65.6109 31.3197Z" fill="#F3F3F3" stroke="#F3F3F3" stroke-width="0.315175"/>
<rect width="81.0428" height="9.57588" transform="translate(0.978638 41.9751)" fill="white"/>
<path d="M5.79447 48.861C5.31373 48.861 4.92039 48.7982 4.61446 48.6726C4.31399 48.5469 4.09547 48.3639 3.95889 48.1235C3.82778 47.8777 3.77861 47.5772 3.81139 47.2221C3.81686 47.1292 3.8551 47.0828 3.92612 47.0828H4.8603C4.93132 47.0828 4.96682 47.1238 4.96682 47.2057C4.96136 47.4243 5.02965 47.5909 5.17169 47.7056C5.31373 47.8149 5.53498 47.8695 5.83545 47.8695C6.13045 47.8695 6.34624 47.8258 6.48282 47.7384C6.62486 47.651 6.69588 47.5171 6.69588 47.3368C6.69588 47.2494 6.67949 47.173 6.64671 47.1074C6.61393 47.0418 6.55657 46.9817 6.47462 46.9271C6.39268 46.8725 6.28068 46.8179 6.13865 46.7632L4.95863 46.247C4.68548 46.1322 4.46969 46.0066 4.31126 45.87C4.15283 45.728 4.04084 45.5668 3.97528 45.3865C3.90973 45.2063 3.87695 44.9987 3.87695 44.7638C3.88241 44.2939 4.04084 43.9334 4.35223 43.6821C4.66909 43.4253 5.13891 43.2969 5.7617 43.2969C6.21513 43.2969 6.59481 43.357 6.90074 43.4772C7.21213 43.5974 7.43885 43.7749 7.58089 44.0099C7.72839 44.2448 7.78575 44.5398 7.75297 44.8949C7.74751 44.9877 7.712 45.0342 7.64644 45.0342H6.70407C6.67129 45.0342 6.64398 45.0232 6.62212 45.0014C6.60574 44.9741 6.60027 44.9386 6.60574 44.8949C6.62212 44.7091 6.55657 44.5589 6.40907 44.4442C6.26156 44.3294 6.05124 44.2721 5.77809 44.2721C5.53771 44.2721 5.3547 44.3158 5.22905 44.4032C5.10886 44.4851 5.04604 44.6081 5.04058 44.7719C5.04058 44.8539 5.05696 44.9276 5.08974 44.9932C5.12798 45.0588 5.18808 45.1216 5.27002 45.1817C5.35743 45.2363 5.47216 45.2937 5.61419 45.3538L6.78602 45.8536C7.05917 45.9738 7.27496 46.1022 7.43338 46.2388C7.59181 46.3753 7.7038 46.5338 7.76936 46.7141C7.83492 46.8943 7.8677 47.1074 7.8677 47.3532C7.86223 47.8449 7.69561 48.2191 7.36783 48.4759C7.04005 48.7326 6.5156 48.861 5.79447 48.861ZM8.85283 48.7627C8.78182 48.7627 8.74631 48.7272 8.74631 48.6562V43.5018C8.74631 43.4308 8.78182 43.3953 8.85283 43.3953H12.1225C12.1935 43.3953 12.229 43.4308 12.229 43.5018V44.3131C12.229 44.3786 12.1935 44.4114 12.1225 44.4114H9.91813V45.575H11.9258C11.9968 45.575 12.0323 45.6105 12.0323 45.6815V46.4354C12.0323 46.501 11.9968 46.5338 11.9258 46.5338H9.91813V47.7466H12.1225C12.1935 47.7466 12.229 47.7793 12.229 47.8449V48.6562C12.229 48.7272 12.1935 48.7627 12.1225 48.7627H8.85283ZM12.7444 48.7627C12.6679 48.7627 12.6406 48.7245 12.6625 48.648L14.3997 43.4772C14.4216 43.4226 14.4625 43.3953 14.5226 43.3953H15.7764C15.8365 43.3953 15.8747 43.4226 15.8911 43.4772L17.6448 48.648C17.6557 48.6807 17.653 48.7081 17.6366 48.7299C17.6256 48.7518 17.6011 48.7627 17.5628 48.7627H16.5057C16.4456 48.7627 16.4074 48.7354 16.391 48.6807L15.4486 45.5095C15.394 45.3237 15.3421 45.138 15.2929 44.9522C15.2438 44.761 15.1946 44.5725 15.1454 44.3868H15.129C15.0799 44.5725 15.0307 44.761 14.9815 44.9522C14.9324 45.138 14.8805 45.3237 14.8258 45.5095L13.8998 48.6726C13.8835 48.7326 13.8452 48.7627 13.7851 48.7627H12.7444ZM14.0064 47.722L14.203 46.7878H16.0468L16.2599 47.722H14.0064ZM19.9189 48.861C19.4381 48.861 19.0448 48.7982 18.7389 48.6726C18.4384 48.5469 18.2199 48.3639 18.0833 48.1235C17.9522 47.8777 17.903 47.5772 17.9358 47.2221C17.9413 47.1292 17.9795 47.0828 18.0505 47.0828H18.9847C19.0557 47.0828 19.0912 47.1238 19.0912 47.2057C19.0858 47.4243 19.154 47.5909 19.2961 47.7056C19.4381 47.8149 19.6594 47.8695 19.9598 47.8695C20.2548 47.8695 20.4706 47.8258 20.6072 47.7384C20.7493 47.651 20.8203 47.5171 20.8203 47.3368C20.8203 47.2494 20.8039 47.173 20.7711 47.1074C20.7383 47.0418 20.681 46.9817 20.599 46.9271C20.5171 46.8725 20.4051 46.8179 20.263 46.7632L19.083 46.247C18.8099 46.1322 18.5941 46.0066 18.4357 45.87C18.2772 45.728 18.1652 45.5668 18.0997 45.3865C18.0341 45.2063 18.0013 44.9987 18.0013 44.7638C18.0068 44.2939 18.1652 43.9334 18.4766 43.6821C18.7935 43.4253 19.2633 43.2969 19.8861 43.2969C20.3395 43.2969 20.7192 43.357 21.0251 43.4772C21.3365 43.5974 21.5632 43.7749 21.7053 44.0099C21.8528 44.2448 21.9101 44.5398 21.8774 44.8949C21.8719 44.9877 21.8364 45.0342 21.7708 45.0342H20.8285C20.7957 45.0342 20.7684 45.0232 20.7465 45.0014C20.7301 44.9741 20.7247 44.9386 20.7301 44.8949C20.7465 44.7091 20.681 44.5589 20.5335 44.4442C20.386 44.3294 20.1756 44.2721 19.9025 44.2721C19.6621 44.2721 19.4791 44.3158 19.3534 44.4032C19.2333 44.4851 19.1704 44.6081 19.165 44.7719C19.165 44.8539 19.1814 44.9276 19.2141 44.9932C19.2524 45.0588 19.3125 45.1216 19.3944 45.1817C19.4818 45.2363 19.5966 45.2937 19.7386 45.3538L20.9104 45.8536C21.1836 45.9738 21.3994 46.1022 21.5578 46.2388C21.7162 46.3753 21.8282 46.5338 21.8938 46.7141C21.9593 46.8943 21.9921 47.1074 21.9921 47.3532C21.9866 47.8449 21.82 48.2191 21.4922 48.4759C21.1644 48.7326 20.64 48.861 19.9189 48.861ZM24.9777 48.861C24.2402 48.861 23.6802 48.6835 23.2978 48.3284C22.9208 47.9733 22.7324 47.457 22.7324 46.7796V45.3783C22.7324 44.6955 22.9208 44.1792 23.2978 43.8296C23.6802 43.4745 24.2402 43.2969 24.9777 43.2969C25.7206 43.2969 26.2806 43.4745 26.6575 43.8296C27.04 44.1792 27.2312 44.6955 27.2312 45.3783V46.7796C27.2312 47.457 27.04 47.9733 26.6575 48.3284C26.2806 48.6835 25.7206 48.861 24.9777 48.861ZM24.9777 47.8449C25.3437 47.8449 25.6141 47.7493 25.7889 47.5581C25.9692 47.3614 26.0593 47.0801 26.0593 46.7141V45.4439C26.0593 45.0779 25.9692 44.7993 25.7889 44.6081C25.6141 44.4114 25.3437 44.3131 24.9777 44.3131C24.6226 44.3131 24.3549 44.4114 24.1746 44.6081C23.9943 44.7993 23.9042 45.0779 23.9042 45.4439V46.7141C23.9042 47.0801 23.9943 47.3614 24.1746 47.5581C24.3549 47.7493 24.6226 47.8449 24.9777 47.8449ZM28.3229 48.7627C28.2519 48.7627 28.2164 48.7272 28.2164 48.6562V43.5018C28.2164 43.4308 28.2519 43.3953 28.3229 43.3953H29.6258C29.6805 43.3953 29.7214 43.4198 29.7487 43.469L30.9206 45.829C31.0025 45.9984 31.0845 46.1705 31.1664 46.3453C31.2484 46.5147 31.3221 46.6785 31.3877 46.837C31.4587 46.9954 31.516 47.1429 31.5597 47.2795H31.5843C31.5734 47.1702 31.5652 47.0528 31.5597 46.9271C31.5543 46.796 31.5488 46.6649 31.5434 46.5338C31.5379 46.3972 31.5324 46.2661 31.527 46.1404C31.527 46.0093 31.527 45.8891 31.527 45.7799V43.5018C31.527 43.4308 31.5597 43.3953 31.6253 43.3953H32.5513C32.6223 43.3953 32.6578 43.4308 32.6578 43.5018V48.6562C32.6578 48.7272 32.6223 48.7627 32.5513 48.7627H31.2647C31.2046 48.7627 31.1637 48.7381 31.1418 48.6889L30.0028 46.4272C29.9263 46.2688 29.8498 46.1022 29.7733 45.9274C29.6969 45.7471 29.6204 45.5723 29.5439 45.4029C29.4729 45.2281 29.4073 45.067 29.3472 44.9195H29.3226C29.3281 45.0396 29.3308 45.168 29.3308 45.3046C29.3363 45.4357 29.339 45.5696 29.339 45.7061C29.3445 45.8372 29.3472 45.9684 29.3472 46.0995C29.3472 46.2306 29.3472 46.359 29.3472 46.4846V48.6562C29.3472 48.7272 29.3117 48.7627 29.2407 48.7627H28.3229ZM33.8446 48.7627C33.7736 48.7627 33.7381 48.7272 33.7381 48.6562V43.5018C33.7381 43.4308 33.7736 43.3953 33.8446 43.3953H37.1142C37.1853 43.3953 37.2208 43.4308 37.2208 43.5018V44.3131C37.2208 44.3786 37.1853 44.4114 37.1142 44.4114H34.9099V45.575H36.9176C36.9886 45.575 37.0241 45.6105 37.0241 45.6815V46.4354C37.0241 46.501 36.9886 46.5338 36.9176 46.5338H34.9099V47.7466H37.1142C37.1853 47.7466 37.2208 47.7793 37.2208 47.8449V48.6562C37.2208 48.7272 37.1853 48.7627 37.1142 48.7627H33.8446ZM38.302 48.7627C38.231 48.7627 38.1955 48.7272 38.1955 48.6562V43.5018C38.1955 43.4308 38.231 43.3953 38.302 43.3953H40.0884C40.9461 43.3953 41.5826 43.5947 41.9977 43.9935C42.4129 44.3868 42.6205 44.9713 42.6205 45.7471V46.2961C42.6205 47.1156 42.4129 47.7329 41.9977 48.1481C41.588 48.5578 40.9516 48.7627 40.0884 48.7627H38.302ZM39.3673 47.763H40.0147C40.5118 47.763 40.8751 47.6373 41.1045 47.386C41.3395 47.1347 41.4569 46.7632 41.4569 46.2716V45.7717C41.4569 45.3183 41.3395 44.9768 41.1045 44.7474C40.8751 44.5125 40.5118 44.395 40.0147 44.395H39.3673V47.763ZM45.2962 48.7627C45.2252 48.7627 45.1897 48.7272 45.1897 48.6562V43.5018C45.1897 43.4308 45.2252 43.3953 45.2962 43.3953H47.0334C47.6945 43.3953 48.1916 43.5045 48.5248 43.723C48.8635 43.9416 49.0329 44.2721 49.0329 44.7146C49.0329 45.0314 48.9619 45.2855 48.8198 45.4767C48.6778 45.6624 48.4593 45.8099 48.1643 45.9192V45.9438C48.5139 46.0093 48.7843 46.1432 48.9755 46.3453C49.1667 46.5474 49.2623 46.8315 49.2623 47.1975C49.2623 47.7493 49.0848 48.1481 48.7297 48.3939C48.3801 48.6398 47.8119 48.7627 47.0252 48.7627H45.2962ZM46.3615 47.8039H47.0744C47.435 47.8039 47.6945 47.7548 47.8529 47.6564C48.0113 47.5526 48.0905 47.3778 48.0905 47.132C48.0905 46.9025 48.0086 46.7332 47.8447 46.6239C47.6863 46.5147 47.4295 46.46 47.0744 46.46H46.3615V47.8039ZM46.3615 45.5996H47.0088C47.3093 45.5996 47.5251 45.5477 47.6562 45.4439C47.7928 45.3346 47.8611 45.1708 47.8611 44.9522C47.8611 44.7446 47.7873 44.5917 47.6398 44.4933C47.4978 44.395 47.2711 44.3458 46.9597 44.3458H46.3615V45.5996ZM49.5719 48.7627C49.4954 48.7627 49.4681 48.7245 49.4899 48.648L51.2272 43.4772C51.249 43.4226 51.29 43.3953 51.3501 43.3953H52.6039C52.664 43.3953 52.7022 43.4226 52.7186 43.4772L54.4722 48.648C54.4831 48.6807 54.4804 48.7081 54.464 48.7299C54.4531 48.7518 54.4285 48.7627 54.3903 48.7627H53.3332C53.2731 48.7627 53.2348 48.7354 53.2185 48.6807L52.2761 45.5095C52.2215 45.3237 52.1696 45.138 52.1204 44.9522C52.0712 44.761 52.0221 44.5725 51.9729 44.3868H51.9565C51.9073 44.5725 51.8582 44.761 51.809 44.9522C51.7598 45.138 51.7079 45.3237 51.6533 45.5095L50.7273 48.6726C50.7109 48.7326 50.6727 48.7627 50.6126 48.7627H49.5719ZM50.8338 47.722L51.0305 46.7878H52.8743L53.0873 47.722H50.8338ZM55.0992 48.7627C55.0282 48.7627 54.9927 48.7272 54.9927 48.6562V43.5018C54.9927 43.4308 55.0282 43.3953 55.0992 43.3953H56.4022C56.4568 43.3953 56.4978 43.4198 56.5251 43.469L57.6969 45.829C57.7789 45.9984 57.8608 46.1705 57.9427 46.3453C58.0247 46.5147 58.0984 46.6785 58.164 46.837C58.235 46.9954 58.2924 47.1429 58.3361 47.2795H58.3607C58.3497 47.1702 58.3415 47.0528 58.3361 46.9271C58.3306 46.796 58.3252 46.6649 58.3197 46.5338C58.3142 46.3972 58.3088 46.2661 58.3033 46.1404C58.3033 46.0093 58.3033 45.8891 58.3033 45.7799V43.5018C58.3033 43.4308 58.3361 43.3953 58.4016 43.3953H59.3276C59.3986 43.3953 59.4342 43.4308 59.4342 43.5018V48.6562C59.4342 48.7272 59.3986 48.7627 59.3276 48.7627H58.0411C57.981 48.7627 57.94 48.7381 57.9182 48.6889L56.7791 46.4272C56.7026 46.2688 56.6262 46.1022 56.5497 45.9274C56.4732 45.7471 56.3967 45.5723 56.3202 45.4029C56.2492 45.2281 56.1836 45.067 56.1236 44.9195H56.099C56.1044 45.0396 56.1072 45.168 56.1072 45.3046C56.1126 45.4357 56.1154 45.5696 56.1154 45.7061C56.1208 45.8372 56.1236 45.9684 56.1236 46.0995C56.1236 46.2306 56.1236 46.359 56.1236 46.4846V48.6562C56.1236 48.7272 56.088 48.7627 56.017 48.7627H55.0992ZM60.621 48.7627C60.5499 48.7627 60.5144 48.7272 60.5144 48.6562V43.5018C60.5144 43.4308 60.5499 43.3953 60.621 43.3953H61.5797C61.6507 43.3953 61.6862 43.4308 61.6862 43.5018V44.7965C61.6862 44.9058 61.6835 45.0151 61.678 45.1243C61.678 45.2281 61.6753 45.3346 61.6699 45.4439C61.6699 45.5477 61.6644 45.6542 61.6535 45.7635H61.678C61.7764 45.616 61.8775 45.4658 61.9812 45.3128C62.0905 45.1598 62.2052 45.0069 62.3254 44.8539L63.4809 43.4526C63.5082 43.4144 63.5491 43.3953 63.6038 43.3953H64.7756C64.8193 43.3953 64.8493 43.4089 64.8657 43.4362C64.8821 43.4581 64.8739 43.4854 64.8411 43.5182L63.1203 45.5668L65.0214 48.6398C65.0433 48.6726 65.046 48.7026 65.0296 48.7299C65.0187 48.7518 64.9941 48.7627 64.9559 48.7627H63.784C63.724 48.7627 63.6803 48.7381 63.6529 48.6889L62.3172 46.4928L61.6862 47.2139V48.6562C61.6862 48.7272 61.6507 48.7627 61.5797 48.7627H60.621ZM65.7345 48.7627C65.6635 48.7627 65.628 48.7272 65.628 48.6562V43.5018C65.628 43.4308 65.6635 43.3953 65.7345 43.3953H69.0042C69.0752 43.3953 69.1107 43.4308 69.1107 43.5018V44.3131C69.1107 44.3786 69.0752 44.4114 69.0042 44.4114H66.7998V45.575H68.8075C68.8785 45.575 68.914 45.6105 68.914 45.6815V46.4354C68.914 46.501 68.8785 46.5338 68.8075 46.5338H66.7998V47.7466H69.0042C69.0752 47.7466 69.1107 47.7793 69.1107 47.8449V48.6562C69.1107 48.7272 69.0752 48.7627 69.0042 48.7627H65.7345ZM70.1919 48.7627C70.1209 48.7627 70.0854 48.7272 70.0854 48.6562V43.5018C70.0854 43.4308 70.1209 43.3953 70.1919 43.3953H71.9947C72.7322 43.3953 73.2676 43.5373 73.6009 43.8214C73.9341 44.1055 74.1007 44.5179 74.1007 45.0588C74.1007 45.4302 74.0188 45.7444 73.8549 46.0011C73.691 46.2579 73.4397 46.4382 73.101 46.542V46.5502L74.3957 48.6398C74.4176 48.6726 74.4203 48.7026 74.4039 48.7299C74.393 48.7518 74.3657 48.7627 74.322 48.7627H73.2403C73.1857 48.7627 73.142 48.7381 73.1092 48.6889L71.9374 46.7141H71.2572V48.6562C71.2572 48.7272 71.2217 48.7627 71.1507 48.7627H70.1919ZM71.2572 45.7963H71.9783C72.3061 45.7963 72.5465 45.7389 72.6995 45.6242C72.8524 45.5095 72.9289 45.3264 72.9289 45.0751C72.9289 44.8293 72.8579 44.6545 72.7159 44.5507C72.5793 44.4414 72.3444 44.3868 72.0111 44.3868H71.2572V45.7963ZM76.8566 48.861C76.3759 48.861 75.9825 48.7982 75.6766 48.6726C75.3761 48.5469 75.1576 48.3639 75.021 48.1235C74.8899 47.8777 74.8407 47.5772 74.8735 47.2221C74.879 47.1292 74.9172 47.0828 74.9882 47.0828H75.9224C75.9934 47.0828 76.029 47.1238 76.029 47.2057C76.0235 47.4243 76.0918 47.5909 76.2338 47.7056C76.3759 47.8149 76.5971 47.8695 76.8976 47.8695C77.1926 47.8695 77.4084 47.8258 77.5449 47.7384C77.687 47.651 77.758 47.5171 77.758 47.3368C77.758 47.2494 77.7416 47.173 77.7088 47.1074C77.6761 47.0418 77.6187 46.9817 77.5367 46.9271C77.4548 46.8725 77.3428 46.8179 77.2008 46.7632L76.0208 46.247C75.7476 46.1322 75.5318 46.0066 75.3734 45.87C75.215 45.728 75.103 45.5668 75.0374 45.3865C74.9719 45.2063 74.9391 44.9987 74.9391 44.7638C74.9445 44.2939 75.103 43.9334 75.4144 43.6821C75.7312 43.4253 76.201 43.2969 76.8238 43.2969C77.2773 43.2969 77.6569 43.357 77.9629 43.4772C78.2743 43.5974 78.501 43.7749 78.643 44.0099C78.7905 44.2448 78.8479 44.5398 78.8151 44.8949C78.8096 44.9877 78.7741 45.0342 78.7086 45.0342H77.7662C77.7334 45.0342 77.7061 45.0232 77.6843 45.0014C77.6679 44.9741 77.6624 44.9386 77.6679 44.8949C77.6843 44.7091 77.6187 44.5589 77.4712 44.4442C77.3237 44.3294 77.1134 44.2721 76.8402 44.2721C76.5998 44.2721 76.4168 44.3158 76.2912 44.4032C76.171 44.4851 76.1082 44.6081 76.1027 44.7719C76.1027 44.8539 76.1191 44.9276 76.1519 44.9932C76.1901 45.0588 76.2502 45.1216 76.3321 45.1817C76.4196 45.2363 76.5343 45.2937 76.6763 45.3538L77.8481 45.8536C78.1213 45.9738 78.3371 46.1022 78.4955 46.2388C78.6539 46.3753 78.7659 46.5338 78.8315 46.7141C78.897 46.8943 78.9298 47.1074 78.9298 47.3532C78.9244 47.8449 78.7577 48.2191 78.43 48.4759C78.1022 48.7326 77.5777 48.861 76.8566 48.861Z" fill="#F3F3F3"/>
<rect x="41.0409" y="91.7217" width="51.0584" height="1.89105" transform="rotate(-45.0717 41.0409 91.7217)" fill="#FFF3F7"/>
<rect x="4.46692" y="36.2661" width="51.0584" height="1.89105" transform="rotate(-45.0717 4.46692 36.2661)" fill="#FFF3F7"/>
</svg>
