<svg width="48" height="54" viewBox="0 0 48 54" fill="none" xmlns="http://www.w3.org/2000/svg">
<path d="M37.5402 18.1292L35.3427 20.3267L23.6228 8.60679L15.1076 17.0304L17.7629 19.5942L22.7988 14.5583L41.3857 33.1452L39.0967 35.3427L22.7988 19.1364L19.9604 21.8832L36.3499 38.1811L23.2566 51.2744L9.24769 37.2655L11.5367 34.8849L23.2566 46.6963L31.7718 38.1811L29.2081 35.6174L24.0806 40.7448L5.31055 22.0663L7.50802 19.7773L24.0806 36.0752L26.8275 33.3284L10.438 17.0304L23.4397 4.02872L37.5402 18.1292Z" fill="black" stroke="black" stroke-width="0.183123"/>
<rect width="47.0626" height="5.49369" transform="translate(0 24.3553)" fill="white"/>
<path d="M2.36438 28.6593C2.08506 28.6593 1.85652 28.6228 1.67877 28.5498C1.5042 28.4768 1.37723 28.3705 1.29788 28.2308C1.2217 28.088 1.19313 27.9134 1.21218 27.7071C1.21535 27.6531 1.23757 27.6262 1.27883 27.6262H1.82161C1.86287 27.6262 1.8835 27.65 1.8835 27.6976C1.88033 27.8245 1.92001 27.9214 2.00253 27.988C2.08506 28.0515 2.21361 28.0832 2.38819 28.0832C2.55959 28.0832 2.68497 28.0578 2.76432 28.0071C2.84685 27.9563 2.88812 27.8785 2.88812 27.7738C2.88812 27.723 2.87859 27.6785 2.85955 27.6404C2.8405 27.6024 2.80718 27.5674 2.75956 27.5357C2.71195 27.504 2.64688 27.4722 2.56435 27.4405L1.87874 27.1405C1.72004 27.0739 1.59466 27.0009 1.50261 26.9215C1.41056 26.839 1.34549 26.7453 1.3074 26.6406C1.26931 26.5358 1.25026 26.4152 1.25026 26.2787C1.25344 26.0058 1.34549 25.7963 1.52641 25.6503C1.71051 25.5011 1.98349 25.4265 2.34534 25.4265C2.60879 25.4265 2.82939 25.4614 3.00715 25.5312C3.18807 25.6011 3.3198 25.7042 3.40232 25.8407C3.48803 25.9772 3.52135 26.1486 3.50231 26.3549C3.49914 26.4089 3.4785 26.4359 3.44041 26.4359H2.89288C2.87383 26.4359 2.85796 26.4295 2.84526 26.4168C2.83574 26.4009 2.83257 26.3803 2.83574 26.3549C2.84526 26.247 2.80718 26.1597 2.72147 26.0931C2.63577 26.0264 2.51357 25.9931 2.35486 25.9931C2.2152 25.9931 2.10887 26.0185 2.03586 26.0692C1.96603 26.1169 1.92953 26.1883 1.92635 26.2835C1.92635 26.3311 1.93588 26.374 1.95492 26.4121C1.97714 26.4501 2.01206 26.4866 2.05967 26.5216C2.11045 26.5533 2.17711 26.5866 2.25964 26.6215L2.94049 26.912C3.0992 26.9818 3.22457 27.0564 3.31662 27.1358C3.40867 27.2151 3.47374 27.3072 3.51183 27.4119C3.54992 27.5167 3.56897 27.6404 3.56897 27.7833C3.56579 28.0689 3.46898 28.2864 3.27853 28.4356C3.08809 28.5847 2.78337 28.6593 2.36438 28.6593ZM4.14135 28.6022C4.10009 28.6022 4.07946 28.5816 4.07946 28.5403V25.5455C4.07946 25.5043 4.10009 25.4836 4.14135 25.4836H6.04107C6.08233 25.4836 6.10296 25.5043 6.10296 25.5455V26.0169C6.10296 26.055 6.08233 26.074 6.04107 26.074H4.76031V26.7501H5.9268C5.96806 26.7501 5.98869 26.7707 5.98869 26.812V27.25C5.98869 27.2881 5.96806 27.3072 5.9268 27.3072H4.76031V28.0118H6.04107C6.08233 28.0118 6.10296 28.0309 6.10296 28.0689V28.5403C6.10296 28.5816 6.08233 28.6022 6.04107 28.6022H4.14135ZM6.40243 28.6022C6.358 28.6022 6.34213 28.58 6.35482 28.5355L7.3642 25.5312C7.37689 25.4995 7.4007 25.4836 7.43561 25.4836H8.16408C8.19899 25.4836 8.22121 25.4995 8.23073 25.5312L9.24963 28.5355C9.25598 28.5546 9.25439 28.5705 9.24487 28.5832C9.23852 28.5959 9.22424 28.6022 9.20202 28.6022H8.58782C8.55291 28.6022 8.53069 28.5863 8.52117 28.5546L7.97363 26.712C7.94189 26.6041 7.91173 26.4962 7.88317 26.3882C7.8546 26.2772 7.82603 26.1676 7.79746 26.0597H7.78794C7.75937 26.1676 7.73081 26.2772 7.70224 26.3882C7.67367 26.4962 7.64352 26.6041 7.61178 26.712L7.07376 28.5498C7.06424 28.5847 7.04202 28.6022 7.00711 28.6022H6.40243ZM7.13566 27.9975L7.24993 27.4548H8.3212L8.44499 27.9975H7.13566ZM10.5709 28.6593C10.2916 28.6593 10.0631 28.6228 9.88532 28.5498C9.71074 28.4768 9.58378 28.3705 9.50443 28.2308C9.42825 28.088 9.39968 27.9134 9.41873 27.7071C9.4219 27.6531 9.44412 27.6262 9.48538 27.6262H10.0282C10.0694 27.6262 10.0901 27.65 10.0901 27.6976C10.0869 27.8245 10.1266 27.9214 10.2091 27.988C10.2916 28.0515 10.4202 28.0832 10.5947 28.0832C10.7661 28.0832 10.8915 28.0578 10.9709 28.0071C11.0534 27.9563 11.0947 27.8785 11.0947 27.7738C11.0947 27.723 11.0851 27.6785 11.0661 27.6404C11.0471 27.6024 11.0137 27.5674 10.9661 27.5357C10.9185 27.504 10.8534 27.4722 10.7709 27.4405L10.0853 27.1405C9.92659 27.0739 9.80121 27.0009 9.70916 26.9215C9.61711 26.839 9.55204 26.7453 9.51395 26.6406C9.47586 26.5358 9.45681 26.4152 9.45681 26.2787C9.45999 26.0058 9.55204 25.7963 9.73296 25.6503C9.91706 25.5011 10.19 25.4265 10.5519 25.4265C10.8153 25.4265 11.0359 25.4614 11.2137 25.5312C11.3946 25.6011 11.5263 25.7042 11.6089 25.8407C11.6946 25.9772 11.7279 26.1486 11.7089 26.3549C11.7057 26.4089 11.6851 26.4359 11.647 26.4359H11.0994C11.0804 26.4359 11.0645 26.4295 11.0518 26.4168C11.0423 26.4009 11.0391 26.3803 11.0423 26.3549C11.0518 26.247 11.0137 26.1597 10.928 26.0931C10.8423 26.0264 10.7201 25.9931 10.5614 25.9931C10.4217 25.9931 10.3154 26.0185 10.2424 26.0692C10.1726 26.1169 10.1361 26.1883 10.1329 26.2835C10.1329 26.3311 10.1424 26.374 10.1615 26.4121C10.1837 26.4501 10.2186 26.4866 10.2662 26.5216C10.317 26.5533 10.3837 26.5866 10.4662 26.6215L11.147 26.912C11.3057 26.9818 11.4311 27.0564 11.5232 27.1358C11.6152 27.2151 11.6803 27.3072 11.7184 27.4119C11.7565 27.5167 11.7755 27.6404 11.7755 27.7833C11.7723 28.0689 11.6755 28.2864 11.4851 28.4356C11.2946 28.5847 10.9899 28.6593 10.5709 28.6593ZM13.5102 28.6593C13.0817 28.6593 12.7563 28.5562 12.5341 28.3499C12.3151 28.1435 12.2056 27.8436 12.2056 27.45V26.6358C12.2056 26.2391 12.3151 25.9391 12.5341 25.736C12.7563 25.5296 13.0817 25.4265 13.5102 25.4265C13.9419 25.4265 14.2672 25.5296 14.4862 25.736C14.7084 25.9391 14.8195 26.2391 14.8195 26.6358V27.45C14.8195 27.8436 14.7084 28.1435 14.4862 28.3499C14.2672 28.5562 13.9419 28.6593 13.5102 28.6593ZM13.5102 28.0689C13.7229 28.0689 13.88 28.0134 13.9815 27.9023C14.0863 27.788 14.1387 27.6246 14.1387 27.4119V26.6739C14.1387 26.4613 14.0863 26.2994 13.9815 26.1883C13.88 26.074 13.7229 26.0169 13.5102 26.0169C13.3039 26.0169 13.1483 26.074 13.0436 26.1883C12.9388 26.2994 12.8865 26.4613 12.8865 26.6739V27.4119C12.8865 27.6246 12.9388 27.788 13.0436 27.9023C13.1483 28.0134 13.3039 28.0689 13.5102 28.0689ZM15.4538 28.6022C15.4126 28.6022 15.3919 28.5816 15.3919 28.5403V25.5455C15.3919 25.5043 15.4126 25.4836 15.4538 25.4836H16.2109C16.2426 25.4836 16.2664 25.4979 16.2823 25.5265L16.9631 26.8977C17.0107 26.9961 17.0584 27.0961 17.106 27.1977C17.1536 27.296 17.1964 27.3913 17.2345 27.4833C17.2758 27.5754 17.3091 27.6611 17.3345 27.7404H17.3488C17.3424 27.6769 17.3377 27.6087 17.3345 27.5357C17.3313 27.4595 17.3282 27.3833 17.325 27.3072C17.3218 27.2278 17.3186 27.1516 17.3155 27.0786C17.3155 27.0024 17.3155 26.9326 17.3155 26.8691V25.5455C17.3155 25.5043 17.3345 25.4836 17.3726 25.4836H17.9106C17.9519 25.4836 17.9725 25.5043 17.9725 25.5455V28.5403C17.9725 28.5816 17.9519 28.6022 17.9106 28.6022H17.1631C17.1282 28.6022 17.1044 28.5879 17.0917 28.5594L16.4299 27.2453C16.3854 27.1532 16.341 27.0564 16.2966 26.9548C16.2521 26.8501 16.2077 26.7485 16.1633 26.6501C16.122 26.5485 16.0839 26.4549 16.049 26.3692H16.0347C16.0379 26.439 16.0395 26.5136 16.0395 26.593C16.0426 26.6692 16.0442 26.7469 16.0442 26.8263C16.0474 26.9025 16.049 26.9786 16.049 27.0548C16.049 27.131 16.049 27.2056 16.049 27.2786V28.5403C16.049 28.5816 16.0284 28.6022 15.9871 28.6022H15.4538ZM18.6621 28.6022C18.6208 28.6022 18.6002 28.5816 18.6002 28.5403V25.5455C18.6002 25.5043 18.6208 25.4836 18.6621 25.4836H20.5618C20.603 25.4836 20.6237 25.5043 20.6237 25.5455V26.0169C20.6237 26.055 20.603 26.074 20.5618 26.074H19.281V26.7501H20.4475C20.4888 26.7501 20.5094 26.7707 20.5094 26.812V27.25C20.5094 27.2881 20.4888 27.3072 20.4475 27.3072H19.281V28.0118H20.5618C20.603 28.0118 20.6237 28.0309 20.6237 28.0689V28.5403C20.6237 28.5816 20.603 28.6022 20.5618 28.6022H18.6621ZM21.2519 28.6022C21.2106 28.6022 21.19 28.5816 21.19 28.5403V25.5455C21.19 25.5043 21.2106 25.4836 21.2519 25.4836H22.2898C22.7882 25.4836 23.158 25.5995 23.3992 25.8312C23.6404 26.0597 23.761 26.3994 23.761 26.8501V27.1691C23.761 27.6452 23.6404 28.0039 23.3992 28.2451C23.1611 28.4832 22.7913 28.6022 22.2898 28.6022H21.2519ZM21.8708 28.0213H22.247C22.5358 28.0213 22.7469 27.9483 22.8802 27.8023C23.0167 27.6563 23.085 27.4405 23.085 27.1548V26.8644C23.085 26.6009 23.0167 26.4025 22.8802 26.2692C22.7469 26.1327 22.5358 26.0645 22.247 26.0645H21.8708V28.0213ZM25.3156 28.6022C25.2744 28.6022 25.2537 28.5816 25.2537 28.5403V25.5455C25.2537 25.5043 25.2744 25.4836 25.3156 25.4836H26.325C26.7091 25.4836 26.9979 25.5471 27.1916 25.6741C27.3884 25.801 27.4867 25.9931 27.4867 26.2502C27.4867 26.4343 27.4455 26.5819 27.363 26.693C27.2804 26.8009 27.1535 26.8866 26.9821 26.9501V26.9644C27.1852 27.0024 27.3423 27.0802 27.4534 27.1977C27.5645 27.3151 27.6201 27.4801 27.6201 27.6928C27.6201 28.0134 27.5169 28.2451 27.3106 28.3879C27.1074 28.5308 26.7773 28.6022 26.3203 28.6022H25.3156ZM25.9346 28.0451H26.3488C26.5583 28.0451 26.7091 28.0166 26.8011 27.9594C26.8932 27.8991 26.9392 27.7976 26.9392 27.6547C26.9392 27.5214 26.8916 27.423 26.7964 27.3595C26.7043 27.296 26.5551 27.2643 26.3488 27.2643H25.9346V28.0451ZM25.9346 26.7644H26.3107C26.4853 26.7644 26.6107 26.7342 26.6869 26.6739C26.7662 26.6104 26.8059 26.5152 26.8059 26.3882C26.8059 26.2676 26.763 26.1788 26.6773 26.1216C26.5948 26.0645 26.4631 26.0359 26.2822 26.0359H25.9346V26.7644ZM27.7999 28.6022C27.7555 28.6022 27.7396 28.58 27.7523 28.5355L28.7617 25.5312C28.7744 25.4995 28.7982 25.4836 28.8331 25.4836H29.5616C29.5965 25.4836 29.6187 25.4995 29.6282 25.5312L30.6471 28.5355C30.6535 28.5546 30.6519 28.5705 30.6423 28.5832C30.636 28.5959 30.6217 28.6022 30.5995 28.6022H29.9853C29.9504 28.6022 29.9282 28.5863 29.9186 28.5546L29.3711 26.712C29.3394 26.6041 29.3092 26.4962 29.2806 26.3882C29.2521 26.2772 29.2235 26.1676 29.1949 26.0597H29.1854C29.1568 26.1676 29.1283 26.2772 29.0997 26.3882C29.0711 26.4962 29.041 26.6041 29.0093 26.712L28.4712 28.5498C28.4617 28.5847 28.4395 28.6022 28.4046 28.6022H27.7999ZM28.5331 27.9975L28.6474 27.4548H29.7187L29.8425 27.9975H28.5331ZM31.0114 28.6022C30.9701 28.6022 30.9495 28.5816 30.9495 28.5403V25.5455C30.9495 25.5043 30.9701 25.4836 31.0114 25.4836H31.7684C31.8002 25.4836 31.824 25.4979 31.8399 25.5265L32.5207 26.8977C32.5683 26.9961 32.6159 27.0961 32.6635 27.1977C32.7112 27.296 32.754 27.3913 32.7921 27.4833C32.8334 27.5754 32.8667 27.6611 32.8921 27.7404H32.9064C32.9 27.6769 32.8953 27.6087 32.8921 27.5357C32.8889 27.4595 32.8857 27.3833 32.8826 27.3072C32.8794 27.2278 32.8762 27.1516 32.873 27.0786C32.873 27.0024 32.873 26.9326 32.873 26.8691V25.5455C32.873 25.5043 32.8921 25.4836 32.9302 25.4836H33.4682C33.5094 25.4836 33.5301 25.5043 33.5301 25.5455V28.5403C33.5301 28.5816 33.5094 28.6022 33.4682 28.6022H32.7207C32.6858 28.6022 32.662 28.5879 32.6493 28.5594L31.9875 27.2453C31.943 27.1532 31.8986 27.0564 31.8541 26.9548C31.8097 26.8501 31.7653 26.7485 31.7208 26.6501C31.6796 26.5485 31.6415 26.4549 31.6066 26.3692H31.5923C31.5954 26.439 31.597 26.5136 31.597 26.593C31.6002 26.6692 31.6018 26.7469 31.6018 26.8263C31.605 26.9025 31.6066 26.9786 31.6066 27.0548C31.6066 27.131 31.6066 27.2056 31.6066 27.2786V28.5403C31.6066 28.5816 31.5859 28.6022 31.5447 28.6022H31.0114ZM34.2196 28.6022C34.1784 28.6022 34.1577 28.5816 34.1577 28.5403V25.5455C34.1577 25.5043 34.1784 25.4836 34.2196 25.4836H34.7767C34.818 25.4836 34.8386 25.5043 34.8386 25.5455V26.2978C34.8386 26.3613 34.837 26.4248 34.8338 26.4882C34.8338 26.5485 34.8322 26.6104 34.8291 26.6739C34.8291 26.7342 34.8259 26.7961 34.8195 26.8596H34.8338C34.891 26.7739 34.9497 26.6866 35.01 26.5977C35.0735 26.5089 35.1401 26.42 35.21 26.3311L35.8813 25.5169C35.8972 25.4947 35.921 25.4836 35.9527 25.4836H36.6336C36.659 25.4836 36.6764 25.4916 36.6859 25.5074C36.6955 25.5201 36.6907 25.536 36.6717 25.555L35.6718 26.7453L36.7764 28.5308C36.7891 28.5498 36.7907 28.5673 36.7812 28.5832C36.7748 28.5959 36.7605 28.6022 36.7383 28.6022H36.0575C36.0225 28.6022 35.9971 28.5879 35.9813 28.5594L35.2052 27.2834L34.8386 27.7023V28.5403C34.8386 28.5816 34.818 28.6022 34.7767 28.6022H34.2196ZM37.1907 28.6022C37.1495 28.6022 37.1288 28.5816 37.1288 28.5403V25.5455C37.1288 25.5043 37.1495 25.4836 37.1907 25.4836H39.0904C39.1317 25.4836 39.1523 25.5043 39.1523 25.5455V26.0169C39.1523 26.055 39.1317 26.074 39.0904 26.074H37.8097V26.7501H38.9762C39.0174 26.7501 39.0381 26.7707 39.0381 26.812V27.25C39.0381 27.2881 39.0174 27.3072 38.9762 27.3072H37.8097V28.0118H39.0904C39.1317 28.0118 39.1523 28.0309 39.1523 28.0689V28.5403C39.1523 28.5816 39.1317 28.6022 39.0904 28.6022H37.1907ZM39.7806 28.6022C39.7393 28.6022 39.7187 28.5816 39.7187 28.5403V25.5455C39.7187 25.5043 39.7393 25.4836 39.7806 25.4836H40.828C41.2565 25.4836 41.5676 25.5661 41.7612 25.7312C41.9548 25.8963 42.0517 26.1359 42.0517 26.4501C42.0517 26.666 42.004 26.8485 41.9088 26.9977C41.8136 27.1469 41.6676 27.2516 41.4708 27.3119V27.3167L42.2231 28.5308C42.2357 28.5498 42.2373 28.5673 42.2278 28.5832C42.2215 28.5959 42.2056 28.6022 42.1802 28.6022H41.5517C41.52 28.6022 41.4946 28.5879 41.4755 28.5594L40.7947 27.4119H40.3995V28.5403C40.3995 28.5816 40.3789 28.6022 40.3376 28.6022H39.7806ZM40.3995 26.8787H40.8185C41.0089 26.8787 41.1486 26.8453 41.2375 26.7787C41.3264 26.712 41.3708 26.6057 41.3708 26.4597C41.3708 26.3168 41.3295 26.2153 41.247 26.1549C41.1677 26.0915 41.0312 26.0597 40.8375 26.0597H40.3995V26.8787ZM43.6529 28.6593C43.3735 28.6593 43.145 28.6228 42.9673 28.5498C42.7927 28.4768 42.6657 28.3705 42.5864 28.2308C42.5102 28.088 42.4816 27.9134 42.5007 27.7071C42.5038 27.6531 42.526 27.6262 42.5673 27.6262H43.1101C43.1514 27.6262 43.172 27.65 43.172 27.6976C43.1688 27.8245 43.2085 27.9214 43.291 27.988C43.3735 28.0515 43.5021 28.0832 43.6767 28.0832C43.8481 28.0832 43.9735 28.0578 44.0528 28.0071C44.1353 27.9563 44.1766 27.8785 44.1766 27.7738C44.1766 27.723 44.1671 27.6785 44.148 27.6404C44.129 27.6024 44.0957 27.5674 44.048 27.5357C44.0004 27.504 43.9354 27.4722 43.8528 27.4405L43.1672 27.1405C43.0085 27.0739 42.8831 27.0009 42.7911 26.9215C42.699 26.839 42.634 26.7453 42.5959 26.6406C42.5578 26.5358 42.5387 26.4152 42.5387 26.2787C42.5419 26.0058 42.634 25.7963 42.8149 25.6503C42.999 25.5011 43.272 25.4265 43.6338 25.4265C43.8973 25.4265 44.1179 25.4614 44.2956 25.5312C44.4765 25.6011 44.6083 25.7042 44.6908 25.8407C44.7765 25.9772 44.8098 26.1486 44.7908 26.3549C44.7876 26.4089 44.767 26.4359 44.7289 26.4359H44.1814C44.1623 26.4359 44.1464 26.4295 44.1337 26.4168C44.1242 26.4009 44.121 26.3803 44.1242 26.3549C44.1337 26.247 44.0957 26.1597 44.01 26.0931C43.9243 26.0264 43.802 25.9931 43.6433 25.9931C43.5037 25.9931 43.3973 26.0185 43.3243 26.0692C43.2545 26.1169 43.218 26.1883 43.2148 26.2835C43.2148 26.3311 43.2244 26.374 43.2434 26.4121C43.2656 26.4501 43.3005 26.4866 43.3481 26.5216C43.3989 26.5533 43.4656 26.5866 43.5481 26.6215L44.229 26.912C44.3877 26.9818 44.5131 27.0564 44.6051 27.1358C44.6972 27.2151 44.7622 27.3072 44.8003 27.4119C44.8384 27.5167 44.8574 27.6404 44.8574 27.7833C44.8543 28.0689 44.7575 28.2864 44.567 28.4356C44.3766 28.5847 44.0718 28.6593 43.6529 28.6593Z" fill="black"/>
<rect x="23.2645" y="53.2241" width="29.6659" height="1.09874" transform="rotate(-45.0717 23.2645 53.2241)" fill="#D7322C"/>
<rect x="2.01428" y="21.0032" width="29.6659" height="1.09874" transform="rotate(-45.0717 2.01428 21.0032)" fill="#D7322C"/>
</svg>
