<svg width="17" height="18" viewBox="0 0 17 18" fill="none" xmlns="http://www.w3.org/2000/svg">
<path d="M12.0299 3.38574H5.13032C3.06045 3.38574 1.68054 4.42067 1.68054 6.83552V11.6652C1.68054 14.08 3.06045 15.115 5.13032 15.115H12.0299C14.0997 15.115 15.4796 14.08 15.4796 11.6652V6.83552C15.4796 4.42067 14.0997 3.38574 12.0299 3.38574ZM12.3541 7.58757L10.1946 9.31246C9.73922 9.67813 9.15965 9.85752 8.58009 9.85752C8.00053 9.85752 7.41407 9.67813 6.9656 9.31246L4.80604 7.58757C4.58525 7.40818 4.55076 7.077 4.72324 6.85622C4.90263 6.63543 5.22691 6.59403 5.4477 6.77342L7.60726 8.49831C8.13162 8.91918 9.02166 8.91918 9.54603 8.49831L11.7056 6.77342C11.9264 6.59403 12.2576 6.62853 12.43 6.85622C12.6094 7.077 12.5749 7.40818 12.3541 7.58757Z" fill="white"/>
</svg>
